# xmcd
#
# Track frame offsets:
#	150
#	25688
#	48247
#	69366
#	87832
#	109553
#	132732
#	156507
#
# Disc length: 2365 seconds
#
# Revision: 49349659
# Processed by: cddbd v1.5.2PL0 Copyright (c) Steve Scherf et al.
# Submitted via: EZCDAudioConverter 8.0.2.1
#
DISCID=63093b08
DTITLE=Hoàng Thanh - Tình Có Như Không
DYEAR=2006
DGENRE=World Pop
TTITLE0=Hoàng Thanh - Mưa bong bóng
TTITLE1=Hoàng Thanh - Cỏ úa
TTITLE2=Hoàng Thanh - Tấm ảnh không hồn
TTITLE3=Hoàng Thanh - Mưa nửa đêm
TTITLE4=Hoàng Thanh - Tình Có Như Không
TTITLE5=Hoàng Thanh - Trúc đào
TTITLE6=Hoàng Thanh - Kiếp đam mê
TTITLE7=Hoàng Thanh, Nhất Thiên Bảo - Tình đầu tình cuối
EXTD=
EXTT0=
EXTT1=
EXTT2=
EXTT3=
EXTT4=
EXTT5=
EXTT6=
EXTT7=
PLAYORDER=
